<svg width="15" height="19" viewBox="0 0 15 19" fill="none" xmlns="http://www.w3.org/2000/svg">
<path d="M2.888 11.308V13.044H1H0.8V13.244V14.804V15.004H1H2.888V18.068V18.268L10.84 10.484M2.888 11.308H1H0.8V11.108V9.28401V9.08401H1H2.888M2.888 11.308V11.108H3.088L2.888 11.308ZM2.888 9.08401V0.932007V0.732007H3.088H7.6C9.7165 0.732007 11.3241 1.15905 12.3842 2.05046C13.4635 2.94461 13.992 4.23886 13.992 5.90001C13.992 7.01921 13.7365 7.99375 13.217 8.81494L13.216 8.81652C12.6951 9.62306 11.9253 10.2387 10.9189 10.6678M2.888 9.08401H3.088V9.28401M2.888 9.08401L3.088 9.28401M10.9189 10.6678C10.9187 10.6679 10.9186 10.6679 10.9184 10.668L10.84 10.484M10.9189 10.6678C10.9191 10.6677 10.9193 10.6676 10.9195 10.6675L10.84 10.484M10.9189 10.6678C9.92659 11.0977 8.70576 11.308 7.264 11.308H6.696V11.108H7.264C8.688 11.108 9.88 10.9 10.84 10.484M3.088 9.28401H2.888M5.448 2.75601H5.248V2.95601H5.448V2.75601ZM6.696 9.28401V9.08401H6.496H5.448V9.28401H6.296H6.496H6.696Z" fill="white" stroke="white" stroke-width="0.4"/>
</svg>
