<svg width="32" height="33" viewBox="0 0 32 33" fill="none" xmlns="http://www.w3.org/2000/svg">
<path d="M31.9499 8.31595C32.222 9.0512 31.3863 10.7668 29.4429 13.4627C29.1708 13.8304 28.821 14.3205 28.3934 14.9332C27.4994 16.077 26.9942 16.8326 26.8775 17.2003C26.6832 17.6904 26.7609 18.1602 27.1108 18.6095C27.3051 18.8546 27.7521 19.3448 28.4517 20.08H28.51V20.1413C30.1036 21.6526 31.1725 22.9393 31.7167 24.0014L31.8333 24.2465L31.9499 24.706V25.2881L31.5418 25.7476L30.5506 25.962L26.2945 26.0846C26.0224 26.1254 25.7018 26.0846 25.3325 25.962C24.9633 25.8395 24.6815 25.717 24.4871 25.5944L24.1373 25.3493C23.7875 25.1042 23.3988 24.7366 22.9713 24.2465C22.5437 23.7563 22.1647 23.307 21.8344 22.8985C21.504 22.49 21.1639 22.153 20.8141 21.8875C20.4642 21.622 20.1533 21.5301 19.8812 21.6118C19.8424 21.6118 19.7938 21.6322 19.7355 21.6731C19.6772 21.7139 19.58 21.8058 19.444 21.9488C19.3079 22.0917 19.1913 22.2653 19.0941 22.4696C18.997 22.6738 18.9095 22.97 18.8318 23.358C18.754 23.7461 18.7152 24.2056 18.7152 24.7366C18.7152 24.9 18.6957 25.0532 18.6569 25.1962C18.618 25.3391 18.5791 25.4515 18.5403 25.5331L18.482 25.5944C18.2487 25.8395 17.9378 25.962 17.5491 25.962H15.6834C14.8672 26.0437 14.0412 25.962 13.2056 25.717C12.3699 25.4719 11.6411 25.1553 11.0192 24.7673C10.3973 24.3792 9.83372 23.9912 9.32843 23.6031C8.82314 23.2151 8.43446 22.8781 8.16238 22.5921L7.75426 22.1632C7.63765 22.0815 7.48218 21.9181 7.28784 21.6731C7.0935 21.428 6.69509 20.897 6.09263 20.08C5.49017 19.2631 4.89743 18.3848 4.3144 17.4454C3.73137 16.5059 3.05117 15.2702 2.27381 13.7384C1.49644 12.2067 0.777369 10.6238 0.116605 8.98993C0.0388685 8.78569 0 8.6223 0 8.49976C0 8.37722 0.0194342 8.2751 0.0583027 8.1934L0.116605 8.13213C0.272079 7.88705 0.583027 7.76451 1.04945 7.76451H5.65536C5.77197 7.76451 5.88857 7.79514 6.00518 7.85641L6.29669 8.00959L6.35499 8.07086C6.54934 8.1934 6.68538 8.37722 6.76311 8.6223C6.99632 9.19417 7.25869 9.79667 7.5502 10.4298C7.84171 11.0629 8.06521 11.5429 8.22068 11.8697L8.45389 12.3598C8.80371 13.0543 9.12437 13.6568 9.41589 14.1673C9.7074 14.6779 9.96976 15.0762 10.203 15.3621C10.4362 15.6481 10.6694 15.8727 10.9026 16.0361C11.1358 16.1995 11.3302 16.2812 11.4856 16.2812C11.6411 16.2812 11.7966 16.2608 11.9521 16.2199L12.0104 16.128L12.2144 15.7298L12.4476 14.9332L12.5934 13.524V11.3182C12.5545 10.8689 12.4962 10.4502 12.4185 10.0622C12.3407 9.67412 12.263 9.3984 12.1853 9.23501L12.127 9.0512C11.8549 8.64273 11.369 8.37722 10.6694 8.25468C10.5528 8.25468 10.5917 8.11171 10.786 7.82578C10.9803 7.62154 11.1941 7.45815 11.4273 7.33561C12.0104 7.00883 13.3319 6.86586 15.3919 6.90671C16.2859 6.90671 17.0438 6.98841 17.6657 7.15179C17.8601 7.19264 18.035 7.26413 18.1904 7.36624C18.3459 7.46836 18.4625 7.61133 18.5403 7.79514C18.618 7.97896 18.6763 8.16277 18.7152 8.34658C18.754 8.5304 18.7735 8.7959 18.7735 9.14311V10.0928C18.7346 10.4196 18.7152 10.8281 18.7152 11.3182V12.7887C18.7152 12.9113 18.7055 13.1564 18.686 13.524C18.6666 13.8916 18.6569 14.1776 18.6569 14.3818C18.6569 14.586 18.6763 14.8209 18.7152 15.0864C18.754 15.3519 18.8221 15.5766 18.9192 15.7604C19.0164 15.9442 19.1427 16.077 19.2982 16.1587C19.3759 16.1995 19.4634 16.2301 19.5606 16.2506C19.6577 16.271 19.8035 16.2097 19.9978 16.0667C20.1922 15.9238 20.4059 15.7195 20.6392 15.454C20.8724 15.1885 21.1639 14.7903 21.5137 14.2593C21.8635 13.7282 22.2328 13.1155 22.6214 12.4211C23.2822 11.1957 23.8847 9.86815 24.4288 8.43849C24.4677 8.35679 24.5163 8.26489 24.5746 8.16277C24.6329 8.06065 24.7009 7.98917 24.7786 7.94832H24.837L24.8953 7.88705L25.1285 7.82578H25.4783L30.2591 7.76451C30.6867 7.72366 31.0462 7.74408 31.3377 7.82578C31.6292 7.90747 31.7944 8.00959 31.8333 8.13213L31.9499 8.31595Z" fill="white"/>
</svg>
